<svg width="24" height="24" viewBox="0 0 24 24" fill="none" xmlns="http://www.w3.org/2000/svg">
<path d="M15.35 20L13.4 21.925C13.0167 22.3083 12.55 22.5 12 22.5C11.45 22.5 10.9833 22.3083 10.6 21.925L8.65 20H6C5.45 20 4.97917 19.8042 4.5875 19.4125C4.19583 19.0208 4 18.55 4 18V15.35L2.075 13.4C1.69167 13.0167 1.5 12.55 1.5 12C1.5 11.45 1.69167 10.9833 2.075 10.6L4 8.65V6C4 5.45 4.19583 4.97917 4.5875 4.5875C4.97917 4.19583 5.45 4 6 4H8.65L10.6 2.075C10.9833 1.69167 11.45 1.5 12 1.5C12.55 1.5 13.0167 1.69167 13.4 2.075L15.35 4H18C18.55 4 19.0208 4.19583 19.4125 4.5875C19.8042 4.97917 20 5.45 20 6V8.65L21.925 10.6C22.3083 10.9833 22.5 11.45 22.5 12C22.5 12.55 22.3083 13.0167 21.925 13.4L20 15.35V18C20 18.55 19.8042 19.0208 19.4125 19.4125C19.0208 19.8042 18.55 20 18 20H15.35ZM12 20.5L14.5 18H18V14.5L20.5 12L18 9.5V6H14.5L12 3.5L9.5 6H6V9.5L3.5 12L6 14.5V18H9.5L12 20.5ZM12 14.475L13.9 15.625C14.0833 15.7417 14.2667 15.7375 14.45 15.6125C14.6333 15.4875 14.7 15.3167 14.65 15.1L14.15 12.925L15.85 11.45C16.0167 11.3 16.0667 11.1208 16 10.9125C15.9333 10.7042 15.7833 10.5917 15.55 10.575L13.325 10.4L12.45 8.35C12.3667 8.15 12.2167 8.05 12 8.05C11.7833 8.05 11.6333 8.15 11.55 8.35L10.675 10.4L8.45 10.575C8.21667 10.5917 8.06667 10.7042 8 10.9125C7.93333 11.1208 7.98333 11.3 8.15 11.45L9.85 12.925L9.35 15.1C9.3 15.3167 9.36667 15.4875 9.55 15.6125C9.73333 15.7375 9.91667 15.7417 10.1 15.625L12 14.475Z" fill="#1DB954"/>
</svg>
