<svg width="200" height="110" viewBox="0 0 200 110" fill="none" xmlns="http://www.w3.org/2000/svg">
<g clip-path="url(#clip0_206_698)">
<path d="M7.94002 104.708C13.3994 108.641 20.4743 108.838 27.313 108.355C28.2679 108.288 29.2161 108.209 30.1555 108.123C30.1611 108.122 30.1686 108.122 30.1743 108.121C30.2195 108.117 30.2647 108.112 30.3079 108.11C30.5018 108.092 30.6958 108.073 30.8879 108.055L30.8425 108.142L30.7001 108.41C30.7513 108.32 30.8024 108.232 30.8536 108.143C30.8686 108.116 30.8855 108.089 30.9005 108.062C32.6721 104.979 34.4292 101.783 34.8774 98.2623C35.3407 94.6084 34.0387 90.4709 30.8228 88.675C30.401 88.4402 29.9544 88.2531 29.4912 88.1173C29.2988 88.0589 29.1039 88.0115 28.9067 87.9695C27.7007 87.7017 26.445 87.7599 25.2689 88.1383C24.0928 88.5166 23.0387 89.2014 22.2149 90.1222C21.3912 91.043 20.8276 92.1665 20.582 93.3773C20.3365 94.5882 20.4179 95.8425 20.8178 97.0115C18.0913 94.2157 18.5999 89.6803 19.5404 85.8898C20.4828 82.0994 21.6235 77.8816 19.7069 74.4771C18.6415 72.5821 16.7679 71.4063 14.6653 70.9327C14.6008 70.9188 14.5364 70.9049 14.4718 70.8929C11.9666 70.3854 9.36216 70.8418 7.17873 72.1707C3.15834 74.7042 1.09343 79.5078 0.42324 84.2133C-0.656553 91.7853 1.73305 100.236 7.94002 104.708Z" fill="#F1F1F1"/>
<path d="M9.70263 92.5696C9.86112 94.2398 10.2623 95.878 10.8936 97.4324C11.4754 98.808 12.2595 100.089 13.2201 101.232C15.1822 103.593 17.7767 105.367 20.5944 106.55C22.7489 107.432 25.0063 108.039 27.3129 108.355C28.2679 108.288 29.216 108.209 30.1554 108.123C30.1611 108.122 30.1686 108.122 30.1743 108.121C30.2195 108.117 30.2647 108.112 30.3079 108.11C30.5018 108.092 30.6958 108.073 30.8878 108.055L30.8425 108.142L30.7001 108.41C30.7512 108.32 30.8024 108.232 30.8536 108.143C30.8686 108.116 30.8855 108.089 30.9004 108.062C29.1712 106.339 27.8801 104.226 27.1353 101.902C26.3905 99.5771 26.2138 97.1078 26.6199 94.7008C27.0449 92.3107 28.0287 90.0549 29.4911 88.1173C29.2988 88.0589 29.1039 88.0115 28.9067 87.9695C28.3509 88.7293 27.8634 89.5368 27.4498 90.3825C25.9659 93.3985 25.4925 96.8122 26.0997 100.118C26.6641 103.11 28.0704 105.878 30.1534 108.099C29.971 108.086 29.7869 108.071 29.6066 108.055C26.193 107.765 22.7863 107.032 19.69 105.528C17.0434 104.275 14.7458 102.389 12.9993 100.039C11.1242 97.4524 10.2979 94.3417 10.1559 91.18C10.0054 87.7952 10.4446 84.3509 11.2171 81.0592C12.0058 77.6846 13.2046 74.4192 14.7866 71.3359C14.822 71.2659 14.8291 71.1851 14.8065 71.11C14.7839 71.035 14.7334 70.9715 14.6653 70.9327C14.6086 70.8944 14.539 70.8801 14.4718 70.8928C14.4389 70.9016 14.4083 70.9176 14.3825 70.9397C14.3566 70.9619 14.3361 70.9896 14.3225 71.0207C14.1273 71.4016 13.9358 71.7828 13.7515 72.1682C12.217 75.3785 11.0873 78.767 10.3883 82.2558C9.70972 85.6215 9.34752 89.1423 9.70263 92.5696Z" fill="white"/>
<path d="M78.9279 109.301H0.206617C0.151819 109.301 0.099265 109.279 0.0605167 109.24C0.0217684 109.201 0 109.149 0 109.094C0 109.039 0.0217684 108.987 0.0605167 108.948C0.099265 108.909 0.151819 108.887 0.206617 108.887H78.9279C78.9827 108.887 79.0352 108.909 79.074 108.948C79.1127 108.987 79.1345 109.039 79.1345 109.094C79.1345 109.149 79.1127 109.201 79.074 109.24C79.0352 109.279 78.9827 109.301 78.9279 109.301Z" fill="#CBCBCB"/>
<path d="M55.2972 53.8171L51.7377 36.3754L50.1741 23.4929L46.71 25.7339L47.1885 39.9304L52.7175 54.6393C52.5398 54.9778 52.4668 55.3614 52.5077 55.7415C52.5486 56.1215 52.7016 56.4809 52.9473 56.7737C53.193 57.0666 53.5202 57.2798 53.8873 57.3863C54.2545 57.4927 54.645 57.4875 55.0092 57.3715C55.3734 57.2554 55.6948 57.0336 55.9327 56.7343C56.1705 56.4351 56.314 56.0719 56.3449 55.6908C56.3758 55.3098 56.2926 54.9282 56.1061 54.5946C55.9195 54.261 55.6379 53.9903 55.2972 53.8171Z" fill="#FFB7B7"/>
<path d="M22.0055 55.1657L22.9908 37.3918L22.6644 24.4189L27.244 26.1323L28.0086 40.2475L24.6773 55.6041C24.9023 55.9131 25.0303 56.282 25.0451 56.664C25.0599 57.046 24.9608 57.4237 24.7603 57.7492C24.5599 58.0747 24.2671 58.3332 23.9194 58.4919C23.5716 58.6506 23.1845 58.7023 22.8073 58.6404C22.4301 58.5785 22.0798 58.4059 21.8009 58.1444C21.5221 57.8829 21.3273 57.5444 21.2414 57.1719C21.1554 56.7994 21.1822 56.4098 21.3182 56.0526C21.4543 55.6954 21.6935 55.3866 22.0055 55.1657Z" fill="#FFB7B7"/>
<path d="M31.597 106.841L33.9369 106.841L35.0502 97.815L31.5966 97.8152L31.597 106.841Z" fill="#FFB7B7"/>
<path d="M31 106.077L35.6084 106.077C36.3873 106.077 37.1345 106.386 37.6852 106.937C38.236 107.488 38.5454 108.235 38.5455 109.014V109.109L31.0001 109.109L31 106.077Z" fill="#2F2E41"/>
<path d="M40.4602 105.805L42.7727 106.163L45.2529 97.4137L41.84 96.8858L40.4602 105.805Z" fill="#FFB7B7"/>
<path d="M39.9872 104.959L44.5415 105.664C45.3112 105.783 46.0022 106.203 46.4623 106.831C46.9224 107.46 47.1139 108.245 46.9949 109.015L46.9803 109.109L39.5237 107.956L39.9872 104.959Z" fill="#2F2E41"/>
<path d="M30.9095 104.146L30.8974 104.081L22.426 58.2787C21.7535 54.6017 22.2899 50.8058 23.9549 47.4592L29.0823 37.2045L44.3819 39.2772L46.1875 52.3331L52.6221 77.2391L52.6157 77.2594L44.3717 103.446L38.9686 103.802L43.7547 80.4262L34.9912 60.5214L35.6093 103.79L30.9095 104.146Z" fill="#2F2E41"/>
<path d="M44.7381 40.9481L44.6371 40.7899C44.6189 40.7614 42.7605 37.9614 37.7033 39.8309C32.5407 41.7397 28.5404 38.053 28.5006 38.0156L28.4808 37.9969L27.3116 27.5761L25.9314 19.1164L30.3249 18.3456L32.4849 17.0497L41.0743 16.8967L43.3345 18.6745L47.0455 19.0789L47.3852 26.7872L47.3836 26.7956L44.7381 40.9481Z" fill="#1DB954"/>
<path d="M45.9691 27.5327V20.9323L47.0127 19.0279L47.0551 19.0266C47.8766 19.0572 48.653 19.41 49.2164 20.0086C50.2661 21.075 50.7415 22.8518 50.6297 25.2896L50.6277 25.3342L45.9691 27.5327Z" fill="#1DB954"/>
<path d="M27.7803 26.8153L22.4616 26.177L22.4574 26.1157C22.276 23.4634 22.7389 21.4946 23.8334 20.264C24.8267 19.1473 25.9649 19.0796 26.0129 19.0773L26.0436 19.0759L27.4834 20.3847L27.7803 26.8153Z" fill="#1DB954"/>
<path d="M43.1769 14.2371H29.1811C28.8932 14.2368 28.6172 14.1223 28.4136 13.9187C28.21 13.7152 28.0955 13.4391 28.0952 13.1513V8.0838C28.0952 5.93984 28.9469 3.8837 30.4629 2.36769C31.9789 0.851683 34.0351 0 36.179 0C38.323 0 40.3791 0.851683 41.8951 2.36769C43.4111 3.8837 44.2628 5.93984 44.2628 8.0838V13.1513C44.2625 13.4391 44.148 13.7152 43.9444 13.9187C43.7408 14.1223 43.4648 14.2368 43.1769 14.2371Z" fill="#2F2E41"/>
<path d="M41.7044 11.1034C43.2745 8.23122 42.2189 4.63012 39.3468 3.06007C36.4747 1.49002 32.8736 2.54557 31.3035 5.41771C29.7335 8.28984 30.789 11.8909 33.6612 13.461C36.5333 15.031 40.1344 13.9755 41.7044 11.1034Z" fill="#FFB7B7"/>
<path d="M42.1375 8.44576H34.3127C34.1657 8.44557 34.0238 8.39178 33.9136 8.29448C33.8034 8.19718 33.7325 8.06304 33.7141 7.91719L33.6128 7.10679C33.603 7.02886 33.5682 6.95621 33.5136 6.8998C33.459 6.8434 33.3875 6.80629 33.3099 6.79407C33.2323 6.78186 33.1529 6.79521 33.0835 6.83211C33.0142 6.86901 32.9588 6.92745 32.9256 6.99862L32.4126 8.0977C32.3638 8.20154 32.2866 8.28938 32.1898 8.351C32.093 8.41262 31.9807 8.44548 31.866 8.44576H30.6774C30.5933 8.44578 30.5102 8.42822 30.4333 8.39422C30.3564 8.36021 30.2875 8.3105 30.2309 8.24828C30.1744 8.18606 30.1314 8.1127 30.1049 8.03292C30.0784 7.95314 30.0688 7.86869 30.0769 7.785L30.5455 2.8898C30.5555 2.78507 30.5926 2.68474 30.653 2.59862C30.7134 2.51249 30.7952 2.44353 30.8903 2.39847C34.4738 0.725576 38.1077 0.727694 41.6912 2.40483C41.7821 2.44755 41.8609 2.51227 41.9205 2.59312C41.9801 2.67397 42.0186 2.76841 42.0325 2.86788L42.7346 7.75672C42.7469 7.84231 42.7407 7.92956 42.7163 8.01254C42.692 8.09552 42.6501 8.17228 42.5934 8.23764C42.5368 8.30299 42.4668 8.3554 42.3881 8.39131C42.3094 8.42722 42.2239 8.44579 42.1375 8.44576Z" fill="#2F2E41"/>
<path d="M55.3155 54.9311L55.0233 54.639L67.7224 41.9396H92.3322L104.749 29.2668H129.041L141.296 16.9156H198.347V17.3288H141.469L129.213 29.68H104.922L92.5058 42.3529H67.8937L55.3155 54.9311Z" fill="#3F3D56"/>
<path d="M105.163 37.1911C109.385 37.1911 112.807 33.7684 112.807 29.5463C112.807 25.3241 109.385 21.9014 105.163 21.9014C100.94 21.9014 97.5177 25.3241 97.5177 29.5463C97.5177 33.7684 100.94 37.1911 105.163 37.1911Z" fill="white"/>
<path d="M141.527 19.2154C142.668 19.2154 143.593 18.2904 143.593 17.1492C143.593 16.0081 142.668 15.0831 141.527 15.0831C140.386 15.0831 139.461 16.0081 139.461 17.1492C139.461 18.2904 140.386 19.2154 141.527 19.2154Z" fill="#CBCBCB"/>
<path d="M197.934 19.2154C199.075 19.2154 200 18.2904 200 17.1492C200 16.0081 199.075 15.0831 197.934 15.0831C196.793 15.0831 195.868 16.0081 195.868 17.1492C195.868 18.2904 196.793 19.2154 197.934 19.2154Z" fill="#CBCBCB"/>
<path d="M169.834 19.2154C170.975 19.2154 171.9 18.2904 171.9 17.1492C171.9 16.0081 170.975 15.0831 169.834 15.0831C168.693 15.0831 167.768 16.0081 167.768 17.1492C167.768 18.2904 168.693 19.2154 169.834 19.2154Z" fill="#CBCBCB"/>
<path d="M105.163 37.3978C103.61 37.3978 102.092 36.9373 100.801 36.0745C99.5094 35.2118 98.5031 33.9856 97.9088 32.5509C97.3146 31.1162 97.1591 29.5376 97.462 28.0145C97.765 26.4915 98.5128 25.0925 99.6108 23.9945C100.709 22.8964 102.108 22.1486 103.631 21.8457C105.154 21.5427 106.733 21.6982 108.167 22.2925C109.602 22.8867 110.828 23.8931 111.691 25.1843C112.554 26.4754 113.014 27.9934 113.014 29.5463C113.012 31.6279 112.184 33.6236 110.712 35.0955C109.24 36.5674 107.244 37.3954 105.163 37.3978ZM105.163 22.1081C103.691 22.1081 102.253 22.5443 101.03 23.3616C99.807 24.179 98.8536 25.3406 98.2906 26.6998C97.7276 28.059 97.5803 29.5545 97.8673 30.9974C98.1543 32.4403 98.8628 33.7657 99.903 34.8059C100.943 35.8462 102.269 36.5546 103.711 36.8416C105.154 37.1286 106.65 36.9813 108.009 36.4183C109.368 35.8553 110.53 34.902 111.347 33.6787C112.165 32.4555 112.601 31.0174 112.601 29.5463C112.599 27.5742 111.814 25.6836 110.42 24.2891C109.025 22.8947 107.135 22.1103 105.163 22.1081Z" fill="#3F3D56"/>
<path d="M105.163 35.0085C108.179 35.0085 110.625 32.563 110.625 29.5463C110.625 26.5296 108.179 24.0841 105.163 24.0841C102.146 24.0841 99.7004 26.5296 99.7004 29.5463C99.7004 32.563 102.146 35.0085 105.163 35.0085Z" fill="#1DB954"/>
<path d="M104.642 31.8521L103.007 29.75L103.958 29.0105L104.732 30.0058L107.347 27.2452L108.222 28.0737L104.642 31.8521Z" fill="white"/>
<path d="M67.5582 49.7948C71.7803 49.7948 75.203 46.3721 75.203 42.15C75.203 37.9278 71.7803 34.5051 67.5582 34.5051C63.336 34.5051 59.9133 37.9278 59.9133 42.15C59.9133 46.3721 63.336 49.7948 67.5582 49.7948Z" fill="white"/>
<path d="M67.5583 50.0015C66.0054 50.0015 64.4874 49.541 63.1962 48.6782C61.905 47.8155 60.8987 46.5893 60.3044 45.1546C59.7102 43.7199 59.5547 42.1413 59.8577 40.6182C60.1606 39.0952 60.9084 37.6962 62.0064 36.5982C63.1045 35.5001 64.5035 34.7523 66.0265 34.4494C67.5495 34.1464 69.1282 34.3019 70.5629 34.8962C71.9976 35.4904 73.2238 36.4968 74.0865 37.788C74.9492 39.0791 75.4097 40.5971 75.4097 42.15C75.4074 44.2316 74.5794 46.2273 73.1075 47.6992C71.6355 49.1711 69.6399 49.9991 67.5583 50.0015ZM67.5583 34.7118C66.0871 34.7118 64.649 35.148 63.4258 35.9653C62.2026 36.7827 61.2492 37.9443 60.6862 39.3035C60.1232 40.6627 59.9759 42.1582 60.263 43.6011C60.55 45.044 61.2584 46.3694 62.2986 47.4096C63.3389 48.4499 64.6643 49.1583 66.1071 49.4453C67.55 49.7323 69.0456 49.585 70.4047 49.022C71.7639 48.459 72.9256 47.5057 73.7429 46.2824C74.5602 45.0592 74.9965 43.6211 74.9965 42.15C74.9943 40.1779 74.2099 38.2873 72.8154 36.8928C71.421 35.4984 69.5303 34.714 67.5583 34.7118Z" fill="#3F3D56"/>
<path d="M67.5583 47.6122C70.575 47.6122 73.0205 45.1666 73.0205 42.15C73.0205 39.1333 70.575 36.6877 67.5583 36.6877C64.5416 36.6877 62.0961 39.1333 62.0961 42.15C62.0961 45.1666 64.5416 47.6122 67.5583 47.6122Z" fill="#1DB954"/>
<path d="M67.0376 44.4558L65.4028 42.3537L66.3535 41.6142L67.1277 42.6095L69.7426 39.8489L70.617 40.6774L67.0376 44.4558Z" fill="white"/>
</g>
<defs>
<clipPath id="clip0_206_698">
<rect width="200" height="109.301" fill="white"/>
</clipPath>
</defs>
</svg>
