<svg width="120" height="120" viewBox="0 0 120 120" fill="none" xmlns="http://www.w3.org/2000/svg">
<mask id="mask0_92_1375" style="mask-type:luminance" maskUnits="userSpaceOnUse" x="9" y="68" width="46" height="39">
<path d="M9.60001 68.2225H54.0818V106.507H9.60001V68.2225Z" fill="white"/>
</mask>
<g mask="url(#mask0_92_1375)">
<path d="M53.7689 106.137C53.7544 106.132 53.7441 106.128 53.7359 106.126C53.7421 106.13 53.7524 106.134 53.7668 106.141C53.7256 106.262 53.6865 106.384 53.6515 106.507C53.1677 106.365 52.688 106.227 52.2041 106.095C38.4982 102.313 23.9606 101.558 9.60001 103.983C12.2127 94.7798 14.8254 85.5767 17.4381 76.3715C18.5499 72.4514 21.6464 69.4146 25.5768 68.3708C25.758 68.3213 25.9392 68.274 26.1183 68.2287C22.7541 78.488 19.392 88.7474 16.0278 99.0067C27.3021 97.5655 43.7236 100.158 52.7229 104.734C53.1862 104.969 53.6288 105.21 54.0489 105.455C53.9418 105.675 53.8471 105.902 53.7689 106.137Z" fill="#368247"/>
</g>
<path d="M37.2444 62.0501C37.1765 62.0645 37.1085 62.0789 37.0406 62.0933C33.0649 62.9684 29.8489 65.892 28.5807 69.7709C25.7003 78.5807 22.9826 86.8883 20.0117 95.974C40.2071 95.029 51.3826 102.202 51.3826 102.202C41.2077 93.2213 25.9268 93.2584 25.9268 93.2584C25.9268 93.2584 33.4787 72.1674 37.2444 62.0501Z" fill="#1DB954"/>
<path d="M47.967 57.1994C47.9443 57.2056 47.9217 57.2097 47.897 57.2159C43.9192 58.0785 40.7053 61.0124 39.4371 64.8913C36.6288 73.4768 33.977 81.5825 31.0801 90.4418C46.2622 92.4204 52.6591 101.617 52.6591 101.617C49.5214 92.3607 36.6082 88.6712 36.6082 88.6712C36.6082 88.6712 44.2775 67.1149 47.967 57.1994Z" fill="#8CC342"/>
<mask id="mask1_92_1375" style="mask-type:luminance" maskUnits="userSpaceOnUse" x="52" y="100" width="9" height="7">
<path d="M52.1856 100.096H60.1534V106.507H52.1856V100.096Z" fill="white"/>
</mask>
<g mask="url(#mask1_92_1375)">
<path d="M60.0854 100.125C56.851 100.125 54.053 102.005 52.7229 104.735C52.5973 104.992 52.4841 105.26 52.3853 105.533C52.3194 105.719 52.2597 105.906 52.2041 106.095C52.6879 106.227 53.1677 106.365 53.6515 106.507C53.6865 106.384 53.7256 106.262 53.7668 106.141L53.7688 106.137C53.8471 105.902 53.9418 105.675 54.0488 105.455C55.1215 103.195 57.4233 101.63 60.0854 101.63V100.125Z" fill="#368247"/>
</g>
<mask id="mask2_92_1375" style="mask-type:luminance" maskUnits="userSpaceOnUse" x="65" y="68" width="46" height="39">
<path d="M65.9388 68.2225H110.4V106.507H65.9388V68.2225Z" fill="white"/>
</mask>
<g mask="url(#mask2_92_1375)">
<path d="M66.2312 106.137C66.2456 106.132 66.2559 106.128 66.2641 106.126C66.2579 106.13 66.2476 106.134 66.2332 106.141C66.2744 106.262 66.3135 106.384 66.3485 106.507C66.8303 106.365 67.3121 106.227 67.7959 106.095C81.4997 102.313 96.0394 101.558 110.4 103.983C107.787 94.7798 105.175 85.5767 102.562 76.3715C101.448 72.4514 98.3536 69.4146 94.4232 68.3708C94.242 68.3213 94.0609 68.274 93.8797 68.2287C97.2439 78.488 100.608 88.7474 103.972 99.0067C92.6979 97.5655 76.2764 100.158 67.275 104.734C66.8138 104.969 66.3712 105.21 65.9512 105.455C66.0582 105.675 66.1509 105.902 66.2312 106.137Z" fill="#368247"/>
</g>
<path d="M82.7556 62.0501C82.8235 62.0645 82.8915 62.0789 82.9594 62.0933C86.9351 62.9684 90.151 65.892 91.4193 69.7709C94.2997 78.5807 97.0174 86.8883 99.9883 95.974C79.7929 95.029 68.6174 102.202 68.6174 102.202C78.7923 93.2213 94.0732 93.2584 94.0732 93.2584C94.0732 93.2584 86.5213 72.1674 82.7556 62.0501Z" fill="#1DB954"/>
<path d="M67.2668 101.617C67.2668 101.617 73.6637 92.4204 88.8478 90.4418C85.986 81.6978 83.4104 71.3994 80.6453 62.9374C79.5376 64.6134 77.4932 65.9907 75.9017 67.2858C79.2761 76.631 83.3198 88.6691 83.3198 88.6691C83.3198 88.6691 70.4066 92.3607 67.2668 101.617Z" fill="#8CC342"/>
<mask id="mask3_92_1375" style="mask-type:luminance" maskUnits="userSpaceOnUse" x="59" y="100" width="9" height="7">
<path d="M59.8693 100.096H67.835V106.507H59.8693V100.096Z" fill="white"/>
</mask>
<g mask="url(#mask3_92_1375)">
<path d="M59.9146 101.63C62.5767 101.63 64.8785 103.195 65.9512 105.455C66.0582 105.675 66.1509 105.902 66.2312 106.137L66.2332 106.141C66.2744 106.262 66.3135 106.384 66.3485 106.507C66.8303 106.365 67.3121 106.227 67.7959 106.095C67.7403 105.906 67.6806 105.719 67.6147 105.533C67.5159 105.26 67.4027 104.992 67.275 104.735C65.9471 102.005 63.147 100.125 59.9146 100.125V101.63Z" fill="#368247"/>
</g>
<mask id="mask4_92_1375" style="mask-type:luminance" maskUnits="userSpaceOnUse" x="51" y="13" width="10" height="10">
<path d="M51.502 13.92H60.4622V22.6228H51.502V13.92Z" fill="white"/>
</mask>
<g mask="url(#mask4_92_1375)">
<path d="M51.9735 15.3736C55.031 18.0604 55.1565 18.678 53.39 22.349C56.0707 19.2833 56.6863 19.1578 60.349 20.9304C57.2916 18.2416 57.166 17.626 58.9346 13.9529C56.2519 17.0186 55.6363 17.1442 51.9735 15.3736Z" fill="#EDF880"/>
</g>
<path d="M50.7114 28.6759C51.7656 28.82 51.8809 28.9374 52.0229 29.9936C52.167 28.9374 52.2844 28.82 53.3365 28.678C52.2844 28.5338 52.167 28.4165 52.025 27.3603C51.8809 28.4165 51.7656 28.5338 50.7114 28.6759Z" fill="#EDF880"/>
<path d="M75.2202 46.6354C77.3614 46.9298 77.5961 47.1665 77.8864 49.3139C78.1787 47.1665 78.4155 46.9298 80.5567 46.6395C78.4155 46.3451 78.1808 46.1083 77.8905 43.963C77.5981 46.1083 77.3614 46.3451 75.2202 46.6354Z" fill="#EDF880"/>
<mask id="mask5_92_1375" style="mask-type:luminance" maskUnits="userSpaceOnUse" x="53" y="46" width="29" height="47">
<path d="M53.9826 46.6725H81.545V92.9805H53.9826V46.6725Z" fill="white"/>
</mask>
<g mask="url(#mask5_92_1375)">
<mask id="mask6_92_1375" style="mask-type:luminance" maskUnits="userSpaceOnUse" x="54" y="46" width="28" height="47">
<path d="M81.1058 62.6011C80.593 56.8607 77.9453 51.4982 74.4872 46.9716C75.6149 50.3137 74.0027 54.089 71.5363 56.5529C69.0742 59.0168 65.8754 60.5048 62.8806 62.2276C59.8872 63.9519 56.9066 66.0978 55.4177 69.2838C54.2745 71.7288 54.1328 74.5705 54.5436 77.2518C54.8114 79.0213 55.3058 80.7397 55.8767 82.4378C56.6828 80.4071 57.7665 78.4961 59.101 76.7835C61.8365 73.2707 65.2847 70.3925 68.8206 67.7419C75.5809 62.6711 76.03 60.5894 76.1773 56.8257C76.8601 59.879 75.3755 63.065 73.2944 65.348C71.2148 67.631 68.5713 69.2795 66.2324 71.2795C60.0388 76.5822 56.058 84.5443 55.4616 92.8259C56.1203 90.0031 58.1277 87.6749 60.4638 86.0512C62.7984 84.4232 65.4646 83.4006 68.074 82.3167C70.6864 81.2328 73.3142 80.0541 75.4633 78.1796C79.743 74.4698 81.613 68.3414 81.1058 62.6011Z" fill="white"/>
</mask>
<g mask="url(#mask6_92_1375)">
<path d="M81.613 46.9716V92.8259H54.1328V46.9716H81.613Z" fill="#1DB954"/>
</g>
</g>
<mask id="mask7_92_1375" style="mask-type:luminance" maskUnits="userSpaceOnUse" x="42" y="37" width="23" height="38">
<path d="M42.0148 37.2997H64.8625V74.3079H42.0148V37.2997Z" fill="white"/>
</mask>
<g mask="url(#mask7_92_1375)">
<path d="M53.9373 67.8571C54.6215 66.391 55.6231 65.1466 56.7947 64.0627C56.5113 63.6543 56.2238 63.2516 55.9206 62.8534C54.0407 60.388 51.7925 58.2115 50.22 55.5244C48.6518 52.8388 47.8414 49.4062 49.1363 46.5689C48.5937 50.9934 49.3558 52.8227 54.1129 58.8315C55.2902 60.3224 56.5014 61.8001 57.6546 63.3158C58.8219 62.3632 60.111 61.5419 61.4059 60.8009C62.5434 60.1459 63.7122 59.5259 64.854 58.8709C63.7745 57.3435 62.4216 55.9781 61.039 54.7279C58.4606 52.3953 55.6373 50.2479 53.7319 47.3041C51.8222 44.3617 51.0119 40.3238 52.794 37.2997C48.4917 40.9744 44.8126 45.6411 43.1481 51.1451C41.4821 56.6491 42.0629 63.0445 45.487 67.6003C47.211 69.8935 49.5414 71.6178 51.8761 73.2444C52.209 73.4763 52.5405 73.7083 52.872 73.9359C52.7756 71.8439 53.0632 69.7374 53.9373 67.8571Z" fill="#1DB954"/>
</g>
<mask id="mask8_92_1375" style="mask-type:luminance" maskUnits="userSpaceOnUse" x="55" y="18" width="21" height="39">
<path d="M55.4333 18.6636H75.017V56.7557H55.4333V18.6636Z" fill="white"/>
</mask>
<g mask="url(#mask8_92_1375)">
<mask id="mask9_92_1375" style="mask-type:luminance" maskUnits="userSpaceOnUse" x="51" y="16" width="28" height="42">
<path d="M51.1734 21.0779L71.6993 16.7949L78.9369 53.5799L58.4097 57.8615L51.1734 21.0779Z" fill="white"/>
</mask>
<g mask="url(#mask9_92_1375)">
<mask id="mask10_92_1375" style="mask-type:luminance" maskUnits="userSpaceOnUse" x="51" y="16" width="28" height="42">
<path d="M71.5704 16.8227L51.0431 21.1043L58.2808 57.8892L78.8066 53.6062L71.5704 16.8227Z" fill="white"/>
</mask>
<g mask="url(#mask10_92_1375)">
<mask id="mask11_92_1375" style="mask-type:luminance" maskUnits="userSpaceOnUse" x="55" y="19" width="20" height="38">
<path d="M55.541 40.3588C55.5679 37.9387 56.1515 35.5754 56.806 33.2487C56.432 35.3435 57.2409 37.6119 58.472 39.3858C59.917 41.4631 61.8876 43.0824 63.5266 45.0022C65.1657 46.922 66.5172 49.3436 66.2905 51.8906C67.0881 49.5507 66.1418 46.9234 64.6911 44.9453C63.2433 42.9657 61.3181 41.4048 59.764 39.5098C58.2085 37.6148 56.9987 35.1743 57.4124 32.7279C58.0966 35.0547 59.9822 36.7804 61.8932 38.2071C63.8043 39.6367 65.874 40.9496 67.2482 42.9278C69.2187 45.7637 69.3406 49.8031 67.6462 52.8053C68.8235 51.1437 69.4539 49.0766 69.4029 47.0168C69.3462 44.8067 68.5033 42.6258 67.0683 40.9803C65.9208 39.6645 64.4446 38.7133 62.9897 37.7768C61.5376 36.8358 60.0657 35.8745 58.9353 34.5455C57.8048 33.2151 57.0454 31.4441 57.2934 29.698C57.6872 31.9751 59.4665 33.7315 61.3648 34.9628C63.2631 36.194 65.3839 37.078 67.132 38.5266C70.1821 41.0532 71.8183 45.2764 71.2899 49.2721C73.48 46.4916 74.075 42.5966 73.2774 39.1159C72.4756 35.6353 70.3988 32.5645 67.8148 30.175C71.7758 34.8898 73.1018 40.0569 71.695 44.2611C71.695 44.2611 71.3465 40.6739 68.3588 38.0364C66.5625 36.4522 63.6215 34.9015 62.7701 32.6287C61.9456 30.4288 62.4273 27.7869 62.4287 25.431C62.4287 23.0692 62.9302 20.4492 61.1197 19.0035C64.5523 21.2107 68.0259 23.5083 70.583 26.7366C74.1175 31.1961 75.6007 37.307 74.5184 42.9526C73.4361 48.5996 69.8151 53.6733 64.9008 56.4173C65.4221 55.2181 65.0934 53.7666 64.361 52.6959C63.6286 51.6222 62.5463 50.8622 61.4555 50.1824C60.3647 49.5011 59.2285 48.8694 58.3006 47.9737C56.323 46.0656 55.514 43.1466 55.541 40.3588Z" fill="white"/>
</mask>
<g mask="url(#mask11_92_1375)">
<path d="M48.4449 20.4784L56.3059 60.442L82.6712 54.9424L74.8088 14.9787L48.4449 20.4784Z" fill="#8CC342"/>
</g>
</g>
</g>
</g>
</svg>
