<svg width="272" height="224" viewBox="0 0 272 224" fill="none" xmlns="http://www.w3.org/2000/svg">
<g filter="url(#filter0_d_108_1011)">
<mask id="mask0_108_1011" style="mask-type:luminance" maskUnits="userSpaceOnUse" x="73" y="105" width="56" height="49">
<path d="M73 105.278H128.602V153.134H73V105.278Z" fill="white"/>
</mask>
<g mask="url(#mask0_108_1011)">
<path d="M128.211 152.671C128.193 152.666 128.18 152.66 128.17 152.658C128.178 152.663 128.19 152.668 128.208 152.676C128.157 152.828 128.108 152.98 128.064 153.134C127.46 152.956 126.86 152.784 126.255 152.619C109.123 147.892 90.9507 146.947 73 149.979C76.2659 138.475 79.5318 126.971 82.7976 115.464C84.1874 110.564 88.058 106.768 92.971 105.464C93.1975 105.402 93.4239 105.343 93.6479 105.286C89.4426 118.11 85.24 130.934 81.0347 143.758C95.1277 141.957 115.655 145.197 126.904 150.918C127.483 151.212 128.036 151.513 128.561 151.819C128.427 152.094 128.309 152.377 128.211 152.671Z" fill="#368247"/>
</g>
<path d="M107.555 97.5627C107.471 97.5807 107.386 97.5987 107.301 97.6167C102.331 98.7105 98.3112 102.365 96.7258 107.214C93.1254 118.226 89.7283 128.61 86.0146 139.968C111.259 138.786 125.228 147.753 125.228 147.753C112.51 136.527 93.4085 136.573 93.4085 136.573C93.4085 136.573 102.848 110.209 107.555 97.5627Z" fill="#1DB954"/>
<path d="M120.959 91.4992C120.93 91.507 120.902 91.5121 120.871 91.5198C115.899 92.5982 111.882 96.2655 110.296 101.114C106.786 111.846 103.471 121.978 99.8502 133.052C118.828 135.526 126.824 147.022 126.824 147.022C122.902 135.451 106.76 130.839 106.76 130.839C106.76 130.839 116.347 103.894 120.959 91.4992Z" fill="#7CB140"/>
<mask id="mask1_108_1011" style="mask-type:luminance" maskUnits="userSpaceOnUse" x="126" y="145" width="11" height="9">
<path d="M126.232 145.12H136.192V153.134H126.232V145.12Z" fill="white"/>
</mask>
<g mask="url(#mask1_108_1011)">
<path d="M136.107 145.156C132.064 145.156 128.566 147.506 126.904 150.918C126.747 151.24 126.605 151.574 126.482 151.917C126.399 152.148 126.325 152.383 126.255 152.619C126.86 152.784 127.46 152.956 128.064 153.134C128.108 152.98 128.157 152.828 128.208 152.676L128.211 152.671C128.309 152.377 128.427 152.094 128.561 151.819C129.902 148.993 132.779 147.037 136.107 147.037V145.156Z" fill="#368247"/>
</g>
<mask id="mask2_108_1011" style="mask-type:luminance" maskUnits="userSpaceOnUse" x="143" y="105" width="56" height="49">
<path d="M143.423 105.278H199V153.134H143.423V105.278Z" fill="white"/>
</mask>
<g mask="url(#mask2_108_1011)">
<path d="M143.789 152.671C143.807 152.666 143.82 152.66 143.83 152.658C143.822 152.663 143.81 152.668 143.792 152.676C143.843 152.828 143.892 152.98 143.936 153.134C144.538 152.956 145.14 152.784 145.745 152.619C162.875 147.892 181.049 146.947 199 149.979C195.734 138.475 192.468 126.971 189.202 115.464C187.81 110.564 183.942 106.768 179.029 105.464C178.803 105.402 178.576 105.343 178.35 105.286C182.555 118.11 186.76 130.934 190.965 143.758C176.872 141.957 156.345 145.197 145.094 150.918C144.517 151.212 143.964 151.513 143.439 151.819C143.573 152.094 143.689 152.377 143.789 152.671Z" fill="#368247"/>
</g>
<path d="M164.444 97.5627C164.529 97.5807 164.614 97.5987 164.699 97.6167C169.669 98.7105 173.689 102.365 175.274 107.214C178.875 118.226 182.272 128.61 185.985 139.968C160.741 138.786 146.772 147.753 146.772 147.753C159.49 136.527 178.591 136.573 178.591 136.573C178.591 136.573 169.152 110.209 164.444 97.5627Z" fill="#1DB954"/>
<path d="M145.083 147.022C145.083 147.022 153.08 135.526 172.06 133.052C168.482 122.122 165.263 109.249 161.807 98.6718C160.422 100.767 157.866 102.488 155.877 104.107C160.095 115.789 165.15 130.836 165.15 130.836C165.15 130.836 149.008 135.451 145.083 147.022Z" fill="#7CB140"/>
<mask id="mask3_108_1011" style="mask-type:luminance" maskUnits="userSpaceOnUse" x="135" y="145" width="11" height="9">
<path d="M135.837 145.12H145.794V153.134H135.837V145.12Z" fill="white"/>
</mask>
<g mask="url(#mask3_108_1011)">
<path d="M135.893 147.037C139.221 147.037 142.098 148.993 143.439 151.819C143.573 152.094 143.689 152.377 143.789 152.671L143.792 152.676C143.843 152.828 143.892 152.98 143.936 153.134C144.538 152.956 145.14 152.784 145.745 152.619C145.675 152.383 145.601 152.148 145.518 151.917C145.395 151.574 145.253 151.24 145.094 150.918C143.434 147.506 139.934 145.156 135.893 145.156V147.037Z" fill="#368247"/>
</g>
<mask id="mask4_108_1011" style="mask-type:luminance" maskUnits="userSpaceOnUse" x="125" y="37" width="12" height="12">
<path d="M125.378 37.4H136.578V48.2785H125.378V37.4Z" fill="white"/>
</mask>
<g mask="url(#mask4_108_1011)">
<path d="M125.967 39.2169C129.789 42.5755 129.946 43.3475 127.738 47.9362C131.088 44.1042 131.858 43.9472 136.436 46.163C132.614 42.8019 132.457 42.0324 134.668 37.4412C131.315 41.2732 130.545 41.4302 125.967 39.2169Z" fill="#EDF880"/>
</g>
<path d="M124.389 55.8449C125.707 56.025 125.851 56.1717 126.029 57.492C126.209 56.1717 126.355 56.025 127.671 55.8474C126.355 55.6673 126.209 55.5206 126.031 54.2003C125.851 55.5206 125.707 55.6673 124.389 55.8449Z" fill="#EDF880"/>
<path d="M155.025 78.2942C157.702 78.6622 157.995 78.9582 158.358 81.6424C158.723 78.9582 159.019 78.6622 161.696 78.2994C159.019 77.9313 158.726 77.6354 158.363 74.9537C157.998 77.6354 157.702 77.9313 155.025 78.2942Z" fill="#EDF880"/>
<mask id="mask5_108_1011" style="mask-type:luminance" maskUnits="userSpaceOnUse" x="128" y="78" width="35" height="59">
<path d="M128.478 78.3406H162.931V136.226H128.478V78.3406Z" fill="white"/>
</mask>
<g mask="url(#mask5_108_1011)">
<mask id="mask6_108_1011" style="mask-type:luminance" maskUnits="userSpaceOnUse" x="128" y="78" width="35" height="59">
<path d="M162.382 98.2513C161.741 91.0759 158.432 84.3727 154.109 78.7144C155.519 82.8921 153.503 87.6113 150.42 90.6911C147.343 93.771 143.344 95.631 139.601 97.7845C135.859 99.9399 132.133 102.622 130.272 106.605C128.843 109.661 128.666 113.213 129.18 116.565C129.514 118.777 130.132 120.925 130.846 123.047C131.853 120.509 133.208 118.12 134.876 115.979C138.296 111.588 142.606 107.991 147.026 104.677C155.476 98.3389 156.037 95.7367 156.222 91.0321C157.075 94.8487 155.219 98.8312 152.618 101.685C150.018 104.539 146.714 106.599 143.791 109.099C136.049 115.728 131.073 125.68 130.327 136.032C131.15 132.504 133.66 129.594 136.58 127.564C139.498 125.529 142.831 124.251 146.093 122.896C149.358 121.541 152.643 120.068 155.329 117.724C160.679 113.087 163.016 105.427 162.382 98.2513Z" fill="white"/>
</mask>
<g mask="url(#mask6_108_1011)">
<path d="M163.016 78.7144V136.032H128.666V78.7144H163.016Z" fill="#1DB954"/>
</g>
</g>
<mask id="mask7_108_1011" style="mask-type:luminance" maskUnits="userSpaceOnUse" x="113" y="66" width="30" height="47">
<path d="M113.518 66.6246H142.078V112.885H113.518V66.6246Z" fill="white"/>
</mask>
<g mask="url(#mask7_108_1011)">
<path d="M128.422 104.821C129.277 102.989 130.529 101.433 131.993 100.078C131.639 99.5679 131.28 99.0646 130.901 98.5668C128.551 95.4851 125.741 92.7644 123.775 89.4055C121.815 86.0485 120.802 81.7578 122.42 78.2111C121.742 83.7418 122.695 86.0284 128.641 93.5394C130.113 95.403 131.627 97.2502 133.068 99.1448C134.527 97.9541 136.139 96.9274 137.757 96.0011C139.179 95.1824 140.64 94.4074 142.068 93.5886C140.718 91.6794 139.027 89.9726 137.299 88.4099C134.076 85.4941 130.547 82.8099 128.165 79.1301C125.778 75.4522 124.765 70.4047 126.993 66.6246C121.615 71.218 117.016 77.0514 114.935 83.9314C112.853 90.8114 113.579 98.8056 117.859 104.5C120.014 107.367 122.927 109.522 125.845 111.556C126.261 111.845 126.676 112.135 127.09 112.42C126.97 109.805 127.329 107.172 128.422 104.821Z" fill="#1DB954"/>
</g>
<mask id="mask8_108_1011" style="mask-type:luminance" maskUnits="userSpaceOnUse" x="130" y="43" width="25" height="48">
<path d="M130.292 43.3296H154.771V90.9446H130.292V43.3296Z" fill="white"/>
</mask>
<g mask="url(#mask8_108_1011)">
<mask id="mask9_108_1011" style="mask-type:luminance" maskUnits="userSpaceOnUse" x="124" y="40" width="36" height="53">
<path d="M124.967 46.3475L150.624 40.9937L159.671 86.9749L134.012 92.3269L124.967 46.3475Z" fill="white"/>
</mask>
<g mask="url(#mask9_108_1011)">
<mask id="mask10_108_1011" style="mask-type:luminance" maskUnits="userSpaceOnUse" x="124" y="41" width="36" height="52">
<path d="M150.463 41.0284L124.804 46.3803L133.851 92.3615L159.508 87.0078L150.463 41.0284Z" fill="white"/>
</mask>
<g mask="url(#mask10_108_1011)">
<mask id="mask11_108_1011" style="mask-type:luminance" maskUnits="userSpaceOnUse" x="130" y="43" width="25" height="48">
<path d="M130.426 70.4485C130.46 67.4234 131.189 64.4693 132.008 61.5608C131.54 64.1794 132.551 67.0149 134.09 69.2323C135.896 71.8289 138.359 73.853 140.408 76.2527C142.457 78.6524 144.146 81.6794 143.863 84.8633C144.86 81.9384 143.677 78.6543 141.864 76.1816C140.054 73.7071 137.648 71.756 135.705 69.3873C133.761 67.0186 132.248 63.9679 132.765 60.9099C133.621 63.8183 135.978 65.9755 138.367 67.7589C140.755 69.5459 143.343 71.1871 145.06 73.6597C147.523 77.2046 147.676 82.2538 145.558 86.0066C147.029 83.9296 147.817 81.3457 147.754 78.771C147.683 76.0084 146.629 73.2823 144.835 71.2254C143.401 69.5806 141.556 68.3916 139.737 67.221C137.922 66.0448 136.082 64.8431 134.669 63.1819C133.256 61.5189 132.307 59.3052 132.617 57.1225C133.109 59.9689 135.333 62.1644 137.706 63.7034C140.079 65.2425 142.73 66.3475 144.915 68.1582C148.728 71.3165 150.773 76.5955 150.112 81.5901C152.85 78.1145 153.594 73.2458 152.597 68.8949C151.595 64.5441 148.998 60.7056 145.769 57.7187C150.72 63.6123 152.377 70.0711 150.619 75.3264C150.619 75.3264 150.183 70.8424 146.449 67.5455C144.203 65.5652 140.527 63.6269 139.463 60.7859C138.432 58.036 139.034 54.7337 139.036 51.7887C139.036 48.8365 139.663 45.5615 137.4 43.7544C141.69 46.5134 146.032 49.3854 149.229 53.4208C153.647 58.9952 155.501 66.6338 154.148 73.6907C152.795 80.7495 148.269 87.0916 142.126 90.5216C142.778 89.0227 142.367 87.2083 141.451 85.8698C140.536 84.5277 139.183 83.5777 137.819 82.728C136.456 81.8764 135.036 81.0868 133.876 79.9672C131.404 77.5821 130.393 73.9332 130.426 70.4485Z" fill="white"/>
</mask>
<g mask="url(#mask11_108_1011)">
<path d="M121.556 45.5979L131.382 95.5526L164.339 88.678L154.511 38.7234L121.556 45.5979Z" fill="#7CB140"/>
</g>
</g>
</g>
</g>
<path d="M14.1691 199.151C12.7239 199.151 11.392 198.922 10.1732 198.463C8.9718 197.987 7.91841 197.317 7.01302 196.453C6.12504 195.589 5.42859 194.575 4.92366 193.411C4.43614 192.247 4.19238 190.969 4.19238 189.575C4.19238 188.182 4.43614 186.904 4.92366 185.74C5.42859 184.576 6.13375 183.562 7.03914 182.698C7.94453 181.834 9.00662 181.173 10.2254 180.714C11.4442 180.238 12.7849 180 14.2474 180C15.8667 180 17.3205 180.273 18.609 180.82C19.9148 181.367 21.0118 182.16 21.8997 183.201L19.1836 185.74C18.5219 185.035 17.7994 184.514 17.0159 184.179C16.2323 183.827 15.3792 183.65 14.4564 183.65C13.5684 183.65 12.7588 183.791 12.0275 184.074C11.2962 184.356 10.6607 184.761 10.121 185.29C9.59861 185.819 9.18944 186.445 8.89345 187.168C8.61487 187.891 8.47558 188.694 8.47558 189.575C8.47558 190.44 8.61487 191.233 8.89345 191.956C9.18944 192.679 9.59861 193.314 10.121 193.861C10.6607 194.39 11.2875 194.795 12.0014 195.077C12.7327 195.359 13.5336 195.501 14.4041 195.501C15.2399 195.501 16.0495 195.368 16.833 195.104C17.634 194.822 18.4088 194.354 19.1574 193.702L21.5602 196.797C20.5678 197.555 19.4099 198.137 18.0866 198.542C16.7808 198.948 15.4749 199.151 14.1691 199.151ZM17.6949 196.241V189.284H21.5602V196.797L17.6949 196.241Z" fill="#368247"/>
<path d="M25.2031 198.833V184.603H29.0946V188.623L28.5461 187.459C28.964 186.454 29.6343 185.696 30.5571 185.184C31.4799 184.655 32.603 184.391 33.9262 184.391V188.2C33.7521 188.182 33.5954 188.174 33.4561 188.174C33.3168 188.156 33.1688 188.147 33.0121 188.147C31.8978 188.147 30.9924 188.473 30.296 189.126C29.6169 189.761 29.2774 190.757 29.2774 192.115V198.833H25.2031Z" fill="#368247"/>
<path d="M43.22 199.045C41.6182 199.045 40.2078 198.728 38.9891 198.093C37.7877 197.458 36.8562 196.594 36.1945 195.501C35.5329 194.39 35.2021 193.129 35.2021 191.718C35.2021 190.29 35.5242 189.029 36.1684 187.935C36.83 186.824 37.7267 185.96 38.8585 185.343C39.9902 184.708 41.2699 184.391 42.6977 184.391C44.0732 184.391 45.3094 184.691 46.4063 185.29C47.5206 185.872 48.3999 186.719 49.0441 187.83C49.6883 188.923 50.0104 190.237 50.0104 191.771C50.0104 191.93 50.0017 192.115 49.9843 192.326C49.9669 192.52 49.9495 192.706 49.9321 192.882H38.5189V190.475H47.7905L46.2235 191.189C46.2235 190.448 46.0755 189.805 45.7795 189.258C45.4835 188.711 45.0743 188.288 44.552 187.988C44.0296 187.671 43.4202 187.512 42.7238 187.512C42.0273 187.512 41.4092 187.671 40.8695 187.988C40.3471 188.288 39.938 188.72 39.642 189.284C39.346 189.831 39.198 190.484 39.198 191.242V191.877C39.198 192.653 39.3634 193.34 39.6942 193.94C40.0424 194.522 40.5213 194.972 41.1307 195.289C41.7575 195.589 42.4887 195.739 43.3245 195.739C44.0732 195.739 44.7261 195.624 45.2833 195.395C45.8578 195.166 46.3802 194.822 46.8503 194.363L49.018 196.744C48.3738 197.484 47.5641 198.058 46.5891 198.463C45.6141 198.851 44.491 199.045 43.22 199.045Z" fill="#368247"/>
<path d="M59.6962 199.045C58.0944 199.045 56.684 198.728 55.4652 198.093C54.2639 197.458 53.3323 196.594 52.6707 195.501C52.0091 194.39 51.6783 193.129 51.6783 191.718C51.6783 190.29 52.0004 189.029 52.6446 187.935C53.3062 186.824 54.2029 185.96 55.3347 185.343C56.4664 184.708 57.7461 184.391 59.1739 184.391C60.5494 184.391 61.7856 184.691 62.8825 185.29C63.9968 185.872 64.8761 186.719 65.5203 187.83C66.1645 188.923 66.4866 190.237 66.4866 191.771C66.4866 191.93 66.4779 192.115 66.4605 192.326C66.4431 192.52 66.4257 192.706 66.4083 192.882H54.9951V190.475H64.2667L62.6997 191.189C62.6997 190.448 62.5517 189.805 62.2557 189.258C61.9597 188.711 61.5505 188.288 61.0282 187.988C60.5058 187.671 59.8964 187.512 59.2 187.512C58.5035 187.512 57.8854 187.671 57.3457 187.988C56.8233 188.288 56.4142 188.72 56.1182 189.284C55.8222 189.831 55.6742 190.484 55.6742 191.242V191.877C55.6742 192.653 55.8396 193.34 56.1704 193.94C56.5186 194.522 56.9974 194.972 57.6068 195.289C58.2336 195.589 58.9649 195.739 59.8007 195.739C60.5494 195.739 61.2023 195.624 61.7594 195.395C62.334 195.166 62.8564 194.822 63.3265 194.363L65.4942 196.744C64.85 197.484 64.0403 198.058 63.0653 198.463C62.0903 198.851 60.9672 199.045 59.6962 199.045Z" fill="#368247"/>
<path d="M77.7394 184.391C78.8537 184.391 79.8462 184.62 80.7167 185.079C81.6047 185.52 82.3012 186.207 82.8061 187.142C83.311 188.059 83.5635 189.24 83.5635 190.686V198.833H79.4892V191.321C79.4892 190.175 79.2368 189.329 78.7318 188.782C78.2443 188.235 77.5479 187.962 76.6425 187.962C75.9983 187.962 75.415 188.103 74.8926 188.385C74.3877 188.65 73.9872 189.064 73.6913 189.628C73.4127 190.193 73.2734 190.916 73.2734 191.797V198.833H69.1991V184.603H73.0906V188.544L72.3593 187.354C72.8642 186.401 73.5868 185.669 74.527 185.158C75.4672 184.647 76.538 184.391 77.7394 184.391Z" fill="#368247"/>
<path d="M103.69 199.151C102.279 199.151 100.965 198.922 99.7459 198.463C98.5445 197.987 97.4998 197.317 96.6118 196.453C95.7238 195.589 95.0274 194.575 94.5225 193.411C94.0349 192.247 93.7912 190.969 93.7912 189.575C93.7912 188.182 94.0349 186.904 94.5225 185.74C95.0274 184.576 95.7238 183.562 96.6118 182.698C97.5172 181.834 98.5706 181.173 99.772 180.714C100.973 180.238 102.288 180 103.716 180C105.3 180 106.728 180.282 107.999 180.846C109.287 181.393 110.367 182.204 111.237 183.28L108.521 185.819C107.894 185.096 107.198 184.558 106.432 184.206C105.666 183.835 104.83 183.65 103.925 183.65C103.071 183.65 102.288 183.791 101.574 184.074C100.86 184.356 100.242 184.761 99.7197 185.29C99.1974 185.819 98.7882 186.445 98.4922 187.168C98.2137 187.891 98.0744 188.694 98.0744 189.575C98.0744 190.457 98.2137 191.26 98.4922 191.983C98.7882 192.706 99.1974 193.332 99.7197 193.861C100.242 194.39 100.86 194.795 101.574 195.077C102.288 195.359 103.071 195.501 103.925 195.501C104.83 195.501 105.666 195.324 106.432 194.972C107.198 194.601 107.894 194.046 108.521 193.305L111.237 195.844C110.367 196.92 109.287 197.74 107.999 198.304C106.728 198.869 105.291 199.151 103.69 199.151Z" fill="#368247"/>
<path d="M122.349 198.833V196.056L122.088 195.448V190.475C122.088 189.593 121.818 188.905 121.279 188.412C120.756 187.918 119.947 187.671 118.85 187.671C118.101 187.671 117.361 187.794 116.63 188.041C115.916 188.27 115.306 188.588 114.802 188.993L113.339 186.11C114.105 185.564 115.028 185.14 116.107 184.841C117.187 184.541 118.284 184.391 119.398 184.391C121.54 184.391 123.203 184.902 124.386 185.925C125.57 186.948 126.162 188.544 126.162 190.713V198.833H122.349ZM118.066 199.045C116.969 199.045 116.029 198.86 115.246 198.49C114.462 198.102 113.861 197.581 113.443 196.929C113.026 196.276 112.817 195.545 112.817 194.733C112.817 193.887 113.017 193.146 113.417 192.512C113.835 191.877 114.488 191.383 115.376 191.03C116.264 190.66 117.422 190.475 118.85 190.475H122.584V192.882H119.294C118.336 192.882 117.674 193.041 117.309 193.358C116.961 193.675 116.786 194.072 116.786 194.548C116.786 195.077 116.987 195.501 117.387 195.818C117.805 196.118 118.371 196.268 119.085 196.268C119.764 196.268 120.373 196.109 120.913 195.792C121.453 195.456 121.844 194.972 122.088 194.337L122.715 196.241C122.419 197.158 121.879 197.855 121.096 198.331C120.312 198.807 119.302 199.045 118.066 199.045Z" fill="#368247"/>
<path d="M147.844 184.391C148.959 184.391 149.943 184.62 150.796 185.079C151.666 185.52 152.345 186.207 152.833 187.142C153.338 188.059 153.59 189.24 153.59 190.686V198.833H149.516V191.321C149.516 190.175 149.281 189.329 148.811 188.782C148.341 188.235 147.679 187.962 146.826 187.962C146.234 187.962 145.703 188.103 145.233 188.385C144.763 188.65 144.397 189.055 144.136 189.602C143.875 190.149 143.744 190.845 143.744 191.692V198.833H139.67V191.321C139.67 190.175 139.435 189.329 138.965 188.782C138.512 188.235 137.859 187.962 137.006 187.962C136.414 187.962 135.883 188.103 135.413 188.385C134.943 188.65 134.577 189.055 134.316 189.602C134.055 190.149 133.924 190.845 133.924 191.692V198.833H129.85V184.603H133.741V188.491L133.01 187.354C133.498 186.384 134.185 185.652 135.073 185.158C135.979 184.647 137.006 184.391 138.155 184.391C139.443 184.391 140.567 184.726 141.524 185.396C142.499 186.049 143.143 187.054 143.457 188.412L142.02 188.015C142.49 186.904 143.239 186.022 144.266 185.37C145.311 184.717 146.504 184.391 147.844 184.391Z" fill="#368247"/>
<path d="M165.547 199.045C164.363 199.045 163.327 198.781 162.439 198.252C161.551 197.722 160.855 196.92 160.35 195.844C159.863 194.751 159.619 193.376 159.619 191.718C159.619 190.043 159.854 188.667 160.324 187.592C160.794 186.516 161.473 185.714 162.361 185.184C163.249 184.655 164.311 184.391 165.547 184.391C166.871 184.391 168.055 184.7 169.099 185.317C170.161 185.916 170.997 186.763 171.606 187.856C172.233 188.949 172.547 190.237 172.547 191.718C172.547 193.217 172.233 194.513 171.606 195.606C170.997 196.7 170.161 197.546 169.099 198.146C168.055 198.745 166.871 199.045 165.547 199.045ZM157.242 203.965V184.603H161.134V187.512L161.055 191.744L161.316 195.95V203.965H157.242ZM164.842 195.659C165.521 195.659 166.122 195.501 166.644 195.183C167.184 194.866 167.611 194.416 167.924 193.834C168.255 193.235 168.42 192.529 168.42 191.718C168.42 190.889 168.255 190.184 167.924 189.602C167.611 189.02 167.184 188.57 166.644 188.253C166.122 187.935 165.521 187.777 164.842 187.777C164.163 187.777 163.554 187.935 163.014 188.253C162.474 188.57 162.048 189.02 161.734 189.602C161.421 190.184 161.264 190.889 161.264 191.718C161.264 192.529 161.421 193.235 161.734 193.834C162.048 194.416 162.474 194.866 163.014 195.183C163.554 195.501 164.163 195.659 164.842 195.659Z" fill="#368247"/>
<path d="M181.203 199.045C180.036 199.045 178.991 198.816 178.069 198.357C177.163 197.899 176.458 197.202 175.953 196.268C175.448 195.315 175.196 194.107 175.196 192.644V184.603H179.27V192.035C179.27 193.217 179.514 194.09 180.001 194.654C180.506 195.201 181.211 195.474 182.117 195.474C182.744 195.474 183.301 195.342 183.788 195.077C184.276 194.795 184.659 194.372 184.937 193.808C185.216 193.226 185.355 192.503 185.355 191.639V184.603H189.43V198.833H185.564V194.919L186.269 196.056C185.799 197.044 185.103 197.793 184.18 198.304C183.275 198.798 182.282 199.045 181.203 199.045Z" fill="#368247"/>
<path d="M197.931 199.045C196.73 199.045 195.572 198.904 194.458 198.622C193.361 198.322 192.49 197.952 191.846 197.511L193.204 194.548C193.848 194.954 194.606 195.289 195.476 195.553C196.364 195.8 197.235 195.924 198.088 195.924C199.028 195.924 199.69 195.809 200.073 195.58C200.473 195.351 200.674 195.033 200.674 194.628C200.674 194.293 200.517 194.046 200.203 193.887C199.907 193.711 199.507 193.578 199.002 193.49C198.497 193.402 197.94 193.314 197.331 193.226C196.739 193.138 196.138 193.023 195.528 192.882C194.919 192.723 194.362 192.494 193.857 192.194C193.352 191.894 192.943 191.489 192.629 190.977C192.333 190.466 192.185 189.805 192.185 188.993C192.185 188.094 192.438 187.301 192.943 186.613C193.465 185.925 194.214 185.387 195.189 184.999C196.164 184.594 197.331 184.391 198.689 184.391C199.646 184.391 200.621 184.497 201.614 184.708C202.606 184.92 203.433 185.229 204.095 185.634L202.737 188.57C202.058 188.165 201.37 187.891 200.674 187.75C199.994 187.592 199.333 187.512 198.689 187.512C197.783 187.512 197.122 187.636 196.704 187.883C196.286 188.129 196.077 188.447 196.077 188.835C196.077 189.187 196.225 189.452 196.521 189.628C196.834 189.805 197.243 189.946 197.748 190.052C198.253 190.157 198.802 190.254 199.394 190.343C200.003 190.413 200.613 190.528 201.222 190.686C201.831 190.845 202.38 191.074 202.867 191.374C203.372 191.656 203.781 192.053 204.095 192.564C204.408 193.058 204.565 193.711 204.565 194.522C204.565 195.404 204.304 196.188 203.781 196.876C203.259 197.546 202.502 198.075 201.509 198.463C200.534 198.851 199.342 199.045 197.931 199.045Z" fill="#368247"/>
<path d="M212.36 198.833L220.508 180.317H224.687L232.862 198.833H228.422L221.736 182.486H223.407L216.695 198.833H212.36ZM216.434 194.866L217.557 191.612H226.959L228.108 194.866H216.434Z" fill="#368247"/>
<path d="M242.776 199.045C241.592 199.045 240.556 198.781 239.668 198.252C238.78 197.722 238.084 196.92 237.579 195.844C237.091 194.751 236.848 193.376 236.848 191.718C236.848 190.043 237.083 188.667 237.553 187.592C238.023 186.516 238.702 185.714 239.59 185.184C240.478 184.655 241.54 184.391 242.776 184.391C244.099 184.391 245.283 184.7 246.328 185.317C247.39 185.916 248.226 186.763 248.835 187.856C249.462 188.949 249.776 190.237 249.776 191.718C249.776 193.217 249.462 194.513 248.835 195.606C248.226 196.7 247.39 197.546 246.328 198.146C245.283 198.745 244.099 199.045 242.776 199.045ZM234.471 203.965V184.603H238.362V187.512L238.284 191.744L238.545 195.95V203.965H234.471ZM242.071 195.659C242.75 195.659 243.351 195.501 243.873 195.183C244.413 194.866 244.839 194.416 245.153 193.834C245.484 193.235 245.649 192.529 245.649 191.718C245.649 190.889 245.484 190.184 245.153 189.602C244.839 189.02 244.413 188.57 243.873 188.253C243.351 187.935 242.75 187.777 242.071 187.777C241.392 187.777 240.783 187.935 240.243 188.253C239.703 188.57 239.277 189.02 238.963 189.602C238.65 190.184 238.493 190.889 238.493 191.718C238.493 192.529 238.65 193.235 238.963 193.834C239.277 194.416 239.703 194.866 240.243 195.183C240.783 195.501 241.392 195.659 242.071 195.659Z" fill="#368247"/>
<path d="M260.808 199.045C259.624 199.045 258.588 198.781 257.7 198.252C256.812 197.722 256.116 196.92 255.611 195.844C255.123 194.751 254.88 193.376 254.88 191.718C254.88 190.043 255.115 188.667 255.585 187.592C256.055 186.516 256.734 185.714 257.622 185.184C258.51 184.655 259.572 184.391 260.808 184.391C262.131 184.391 263.315 184.7 264.36 185.317C265.422 185.916 266.258 186.763 266.867 187.856C267.494 188.949 267.808 190.237 267.808 191.718C267.808 193.217 267.494 194.513 266.867 195.606C266.258 196.7 265.422 197.546 264.36 198.146C263.315 198.745 262.131 199.045 260.808 199.045ZM252.503 203.965V184.603H256.394V187.512L256.316 191.744L256.577 195.95V203.965H252.503ZM260.103 195.659C260.782 195.659 261.383 195.501 261.905 195.183C262.445 194.866 262.871 194.416 263.185 193.834C263.516 193.235 263.681 192.529 263.681 191.718C263.681 190.889 263.516 190.184 263.185 189.602C262.871 189.02 262.445 188.57 261.905 188.253C261.383 187.935 260.782 187.777 260.103 187.777C259.424 187.777 258.815 187.935 258.275 188.253C257.735 188.57 257.309 189.02 256.995 189.602C256.682 190.184 256.525 190.889 256.525 191.718C256.525 192.529 256.682 193.235 256.995 193.834C257.309 194.416 257.735 194.866 258.275 195.183C258.815 195.501 259.424 195.659 260.103 195.659Z" fill="#368247"/>
</g>
<defs>
<filter id="filter0_d_108_1011" x="0.192383" y="0" width="271.615" height="231.965" filterUnits="userSpaceOnUse" color-interpolation-filters="sRGB">
<feFlood flood-opacity="0" result="BackgroundImageFix"/>
<feColorMatrix in="SourceAlpha" type="matrix" values="0 0 0 0 0 0 0 0 0 0 0 0 0 0 0 0 0 0 127 0" result="hardAlpha"/>
<feOffset dy="4"/>
<feGaussianBlur stdDeviation="2"/>
<feComposite in2="hardAlpha" operator="out"/>
<feColorMatrix type="matrix" values="0 0 0 0 0 0 0 0 0 0 0 0 0 0 0 0 0 0 0.25 0"/>
<feBlend mode="normal" in2="BackgroundImageFix" result="effect1_dropShadow_108_1011"/>
<feBlend mode="normal" in="SourceGraphic" in2="effect1_dropShadow_108_1011" result="shape"/>
</filter>
</defs>
</svg>
