<svg width="24" height="24" viewBox="0 0 24 24" fill="none" xmlns="http://www.w3.org/2000/svg">
<path fill-rule="evenodd" clip-rule="evenodd" d="M20 10.2C20 5.22 16.2 2 12 2C7.8 2 4 5.22 4 10.2C4 13.38 6.45 17.12 11.33 21.43C11.71 21.76 12.28 21.76 12.66 21.43C17.55 17.12 20 13.38 20 10.2ZM8.14466 13.8335C6.61657 12.2942 6.61657 9.80186 8.15594 8.2625C9.84191 6.57653 14.4374 6.10288 15.7005 6.00138C15.8697 5.98446 16.0106 6.12543 15.9994 6.30023C15.8979 7.5633 15.4242 12.1588 13.7382 13.8448C12.5259 15.0571 10.7215 15.3109 9.25548 14.6173C9.63892 12.5254 10.7328 10.6815 12.2947 9.36204C10.4509 10.315 8.97355 11.9164 8.14466 13.8335Z" fill="#1DB954"/>
</svg>
